# xmcd
#
# Track frame offsets: 
#        150
#        13985
#        29030
#        39660
#        54110
#        71130
#        85185
#        102027
#        120167
#        132115
#        144795
#        160515
#        179025
#        195100
#        209092
#        221292
#        233092
#        245532
#        256730
#        268042
#        279345
#        294570
#        308750
#        323897
#
# Disc length: 4482 seconds
#
# Revision: 0
# Processed by: cddbd v1.5.1PL0 Copyright (c) Steve Scherf et al.
# Submitted via: ExactAudioCopy v0.95b3
#
DISCID=50118018
DTITLE=O.V. Wright - Soul Classics
DYEAR=1900
DGENRE=Soul
TTITLE0=Don't Let My Baby Ride
TTITLE1=Born All Over
TTITLE2=Ace Of Spades
TTITLE3=I Can't Take It
TTITLE4=Afflicted
TTITLE5=When You Took Your Love From Me
TTITLE6=A Nickel And A Nail
TTITLE7=Don(T Take It Away
TTITLE8=I've Been Searching
TTITLE9=He's My Son(Just The Same)
TTITLE10=Lost In The Shuffle
TTITLE11=Please Forgive Me
TTITLE12=Ghetto Child
TTITLE13=Eight Men For Women
TTITLE14=What Did You Tell This Girl Of Mine
TTITLE15=What About You
TTITLE16=Why Not Give Me A Chance
TTITLE17=I'll Hate Myself Tomorrow
TTITLE18=Blowing In The Wind
TTITLE19=Pledging  My Love
TTITLE20=You're Gonna Make Me Cry
TTITLE21=He Made A Woman For Man
TTITLE22=Slow And Easy
TTITLE23=I'm Going Home (To Live With God)
EXTD=
EXTT0=
EXTT1=
EXTT2=
EXTT3=
EXTT4=
EXTT5=
EXTT6=
EXTT7=
EXTT8=
EXTT9=
EXTT10=
EXTT11=
EXTT12=
EXTT13=
EXTT14=
EXTT15=
EXTT16=
EXTT17=
EXTT18=
EXTT19=
EXTT20=
EXTT21=
EXTT22=
EXTT23=
PLAYORDER=
